<mxfile host="app.diagrams.net" modified="2020-12-17T05:56:09.482Z" agent="5.0 (Windows NT 6.2; Win64; x64) AppleWebKit/537.36 (KHTML, like Gecko) Chrome/87.0.4280.88 Safari/537.36" etag="QY2byXgFG-R8uRUb6P_F" version="14.0.4" type="github">
  <diagram name="Page-1" id="2ca16b54-16f6-2749-3443-fa8db7711227">
    <mxGraphModel dx="1664" dy="887" grid="1" gridSize="10" guides="1" tooltips="1" connect="1" arrows="1" fold="1" page="1" pageScale="1" pageWidth="1100" pageHeight="850" background="#ffffff" math="0" shadow="0">
      <root>
        <mxCell id="0" />
        <mxCell id="1" parent="0" />
        <mxCell id="2ed32ef02a7f4228-18" style="edgeStyle=orthogonalEdgeStyle;html=1;labelBackgroundColor=none;startArrow=ERmandOne;endArrow=ERzeroToMany;fontFamily=Verdana;fontSize=12;align=left;endFill=1;dashed=1;exitX=1;exitY=0.5;exitDx=0;exitDy=0;" parent="1" source="1fRgIm-5sWAIXZUn4M2q-16" target="2ed32ef02a7f4228-8" edge="1">
          <mxGeometry relative="1" as="geometry">
            <mxPoint x="240" y="285" as="sourcePoint" />
          </mxGeometry>
        </mxCell>
        <mxCell id="2ed32ef02a7f4228-19" style="edgeStyle=orthogonalEdgeStyle;html=1;dashed=1;labelBackgroundColor=none;startArrow=ERmandOne;endArrow=ERzeroToMany;fontFamily=Verdana;fontSize=12;align=left;entryX=0.007;entryY=0.566;entryDx=0;entryDy=0;entryPerimeter=0;endFill=1;exitX=0.5;exitY=1;exitDx=0;exitDy=0;" parent="1" source="1fRgIm-5sWAIXZUn4M2q-15" target="2ed32ef02a7f4228-10" edge="1">
          <mxGeometry relative="1" as="geometry">
            <Array as="points">
              <mxPoint x="150" y="676" />
            </Array>
            <mxPoint x="140" y="760" as="sourcePoint" />
          </mxGeometry>
        </mxCell>
        <mxCell id="2ed32ef02a7f4228-20" style="edgeStyle=orthogonalEdgeStyle;html=1;dashed=1;labelBackgroundColor=none;startArrow=ERmandOne;endArrow=ERzeroToMany;fontFamily=Verdana;fontSize=12;align=left;exitX=0.5;exitY=0;exitDx=0;exitDy=0;endFill=1;" parent="1" target="2ed32ef02a7f4228-11" edge="1">
          <mxGeometry relative="1" as="geometry">
            <mxPoint x="150" y="120" as="sourcePoint" />
            <Array as="points">
              <mxPoint x="150" y="70" />
              <mxPoint x="740" y="70" />
            </Array>
          </mxGeometry>
        </mxCell>
        <mxCell id="2ed32ef02a7f4228-8" value="&lt;div style=&quot;box-sizing: border-box ; width: 100% ; background: #e4e4e4 ; padding: 2px&quot;&gt;채권거래&lt;/div&gt;&lt;table style=&quot;width: 100% ; font-size: 1em&quot; cellpadding=&quot;2&quot; cellspacing=&quot;0&quot;&gt;&lt;tbody&gt;&lt;tr&gt;&lt;td&gt;PK&lt;/td&gt;&lt;td&gt;uniqueId&lt;/td&gt;&lt;/tr&gt;&lt;tr&gt;&lt;td&gt;FK1&lt;/td&gt;&lt;td&gt;foreignKey&lt;/td&gt;&lt;/tr&gt;&lt;tr&gt;&lt;td&gt;&lt;/td&gt;&lt;td&gt;fieldname&lt;/td&gt;&lt;/tr&gt;&lt;tr&gt;&lt;td&gt;FK1&lt;br&gt;&lt;/td&gt;&lt;td&gt;foreignKey&lt;br&gt;&lt;/td&gt;&lt;/tr&gt;&lt;tr&gt;&lt;td&gt;FK1&lt;br&gt;&lt;/td&gt;&lt;td&gt;foreignKey&lt;br&gt;&lt;/td&gt;&lt;/tr&gt;&lt;tr&gt;&lt;td&gt;FK1&lt;br&gt;&lt;/td&gt;&lt;td&gt;foreignKey&lt;br&gt;&lt;/td&gt;&lt;/tr&gt;&lt;tr&gt;&lt;td&gt;FK1&lt;br&gt;&lt;/td&gt;&lt;td&gt;foreignKey&lt;br&gt;&lt;/td&gt;&lt;/tr&gt;&lt;tr&gt;&lt;td&gt;FK1&lt;br&gt;&lt;/td&gt;&lt;td&gt;foreignKey&lt;br&gt;&lt;/td&gt;&lt;/tr&gt;&lt;tr&gt;&lt;td&gt;FK1&lt;br&gt;&lt;/td&gt;&lt;td&gt;foreignKey&lt;br&gt;&lt;/td&gt;&lt;/tr&gt;&lt;tr&gt;&lt;td&gt;FK1&lt;br&gt;&lt;/td&gt;&lt;td&gt;foreignKey&lt;br&gt;&lt;/td&gt;&lt;/tr&gt;&lt;tr&gt;&lt;td&gt;FK1&lt;br&gt;&lt;/td&gt;&lt;td&gt;foreignKey&lt;br&gt;&lt;/td&gt;&lt;/tr&gt;&lt;tr&gt;&lt;td&gt;&lt;br&gt;&lt;/td&gt;&lt;td&gt;fieldname&lt;br&gt;&lt;/td&gt;&lt;/tr&gt;&lt;tr&gt;&lt;td&gt;&lt;br&gt;&lt;/td&gt;&lt;td&gt;fieldname&lt;br&gt;&lt;/td&gt;&lt;/tr&gt;&lt;tr&gt;&lt;td&gt;FK1&lt;br&gt;&lt;/td&gt;&lt;td&gt;foreignKey&lt;br&gt;&lt;/td&gt;&lt;/tr&gt;&lt;tr&gt;&lt;td&gt;&lt;br&gt;&lt;/td&gt;&lt;td&gt;fieldname&lt;br&gt;&lt;/td&gt;&lt;/tr&gt;&lt;tr&gt;&lt;td&gt;&lt;br&gt;&lt;/td&gt;&lt;td&gt;fieldname&lt;br&gt;&lt;/td&gt;&lt;/tr&gt;&lt;tr&gt;&lt;td&gt;FK1&lt;br&gt;&lt;/td&gt;&lt;td&gt;foreignKey&lt;br&gt;&lt;/td&gt;&lt;/tr&gt;&lt;/tbody&gt;&lt;/table&gt;" style="verticalAlign=top;align=left;overflow=fill;html=1;rounded=0;shadow=0;comic=0;labelBackgroundColor=none;strokeWidth=1;fontFamily=Verdana;fontSize=12" parent="1" vertex="1">
          <mxGeometry x="340" y="120" width="180" height="330" as="geometry" />
        </mxCell>
        <mxCell id="2ed32ef02a7f4228-10" value="&lt;div style=&quot;box-sizing: border-box ; width: 100% ; background: #e4e4e4 ; padding: 2px&quot;&gt;채권잔고&lt;/div&gt;&lt;table style=&quot;width: 100% ; font-size: 1em&quot; cellpadding=&quot;2&quot; cellspacing=&quot;0&quot;&gt;&lt;tbody&gt;&lt;tr&gt;&lt;td&gt;PK&lt;/td&gt;&lt;td&gt;uniqueId&lt;/td&gt;&lt;/tr&gt;&lt;tr&gt;&lt;td&gt;FK1&lt;/td&gt;&lt;td&gt;foreignKey&lt;/td&gt;&lt;/tr&gt;&lt;tr&gt;&lt;td&gt;&lt;/td&gt;&lt;td&gt;fieldname&lt;/td&gt;&lt;/tr&gt;&lt;tr&gt;&lt;td&gt;FK1&lt;br&gt;&lt;/td&gt;&lt;td&gt;foreignKey&lt;br&gt;&lt;/td&gt;&lt;/tr&gt;&lt;tr&gt;&lt;td&gt;FK1&lt;br&gt;&lt;/td&gt;&lt;td&gt;foreignKey&lt;br&gt;&lt;/td&gt;&lt;/tr&gt;&lt;tr&gt;&lt;td&gt;&lt;br&gt;&lt;/td&gt;&lt;td&gt;fieldname&lt;br&gt;&lt;/td&gt;&lt;/tr&gt;&lt;tr&gt;&lt;td&gt;FK1&lt;br&gt;&lt;/td&gt;&lt;td&gt;foreignKey&lt;br&gt;&lt;/td&gt;&lt;/tr&gt;&lt;tr&gt;&lt;td&gt;FK1&lt;br&gt;&lt;/td&gt;&lt;td&gt;foreignKey&lt;br&gt;&lt;/td&gt;&lt;/tr&gt;&lt;tr&gt;&lt;td&gt;FK1&lt;br&gt;&lt;/td&gt;&lt;td&gt;foreignKey&lt;br&gt;&lt;/td&gt;&lt;/tr&gt;&lt;tr&gt;&lt;td&gt;&lt;br&gt;&lt;/td&gt;&lt;td&gt;fieldname&lt;br&gt;&lt;/td&gt;&lt;/tr&gt;&lt;tr&gt;&lt;td&gt;&lt;br&gt;&lt;/td&gt;&lt;td&gt;fieldname&lt;br&gt;&lt;/td&gt;&lt;/tr&gt;&lt;tr&gt;&lt;td&gt;&lt;br&gt;&lt;/td&gt;&lt;td&gt;fieldname&lt;br&gt;&lt;/td&gt;&lt;/tr&gt;&lt;/tbody&gt;&lt;/table&gt;" style="verticalAlign=top;align=left;overflow=fill;html=1;rounded=0;shadow=0;comic=0;labelBackgroundColor=none;strokeWidth=1;fontFamily=Verdana;fontSize=12" parent="1" vertex="1">
          <mxGeometry x="340" y="540" width="180" height="240" as="geometry" />
        </mxCell>
        <mxCell id="2ed32ef02a7f4228-11" value="&lt;div style=&quot;box-sizing: border-box ; width: 100% ; background: rgb(228 , 228 , 228) ; padding: 2px ; font-size: 14px&quot;&gt;&lt;b&gt;채권현금흐름&lt;/b&gt;&lt;/div&gt;&lt;table style=&quot;width: 100% ; font-size: 14px&quot; cellpadding=&quot;2&quot; cellspacing=&quot;0&quot;&gt;&lt;tbody style=&quot;font-size: 14px&quot;&gt;&lt;tr style=&quot;font-size: 14px&quot;&gt;&lt;td style=&quot;font-size: 14px&quot;&gt;PK&lt;/td&gt;&lt;td style=&quot;font-size: 14px&quot;&gt;uniqueId&lt;/td&gt;&lt;/tr&gt;&lt;tr style=&quot;font-size: 14px&quot;&gt;&lt;td style=&quot;font-size: 14px&quot;&gt;FK1&lt;/td&gt;&lt;td style=&quot;font-size: 14px&quot;&gt;foreignKey&lt;/td&gt;&lt;/tr&gt;&lt;tr style=&quot;font-size: 14px&quot;&gt;&lt;td style=&quot;font-size: 14px&quot;&gt;&lt;/td&gt;&lt;td style=&quot;font-size: 14px&quot;&gt;fieldname&lt;/td&gt;&lt;/tr&gt;&lt;/tbody&gt;&lt;/table&gt;" style="verticalAlign=top;align=left;overflow=fill;html=1;rounded=0;shadow=0;comic=0;labelBackgroundColor=none;strokeWidth=1;fontFamily=Verdana;fontSize=14;" parent="1" vertex="1">
          <mxGeometry x="650" y="120" width="180" height="90" as="geometry" />
        </mxCell>
        <mxCell id="2ed32ef02a7f4228-12" value="&lt;div style=&quot;box-sizing: border-box ; width: 100% ; background: rgb(228 , 228 , 228) ; padding: 2px ; font-size: 14px&quot;&gt;&lt;b&gt;영업일관리&lt;/b&gt;&lt;/div&gt;&lt;table style=&quot;width: 100% ; font-size: 14px&quot; cellpadding=&quot;2&quot; cellspacing=&quot;0&quot;&gt;&lt;tbody style=&quot;font-size: 14px&quot;&gt;&lt;tr style=&quot;font-size: 14px&quot;&gt;&lt;td style=&quot;font-size: 14px&quot;&gt;PK&lt;/td&gt;&lt;td style=&quot;font-size: 14px&quot;&gt;uniqueId&lt;/td&gt;&lt;/tr&gt;&lt;tr style=&quot;font-size: 14px&quot;&gt;&lt;td style=&quot;font-size: 14px&quot;&gt;FK1&lt;/td&gt;&lt;td style=&quot;font-size: 14px&quot;&gt;foreignKey&lt;/td&gt;&lt;/tr&gt;&lt;tr style=&quot;font-size: 14px&quot;&gt;&lt;td style=&quot;font-size: 14px&quot;&gt;&lt;/td&gt;&lt;td style=&quot;font-size: 14px&quot;&gt;fieldname&lt;/td&gt;&lt;/tr&gt;&lt;tr style=&quot;font-size: 14px&quot;&gt;&lt;td style=&quot;font-size: 14px&quot;&gt;&lt;br style=&quot;font-size: 14px&quot;&gt;&lt;/td&gt;&lt;td style=&quot;font-size: 14px&quot;&gt;fieldname&lt;br style=&quot;font-size: 14px&quot;&gt;&lt;/td&gt;&lt;/tr&gt;&lt;tr style=&quot;font-size: 14px&quot;&gt;&lt;td style=&quot;font-size: 14px&quot;&gt;&lt;br style=&quot;font-size: 14px&quot;&gt;&lt;/td&gt;&lt;td style=&quot;font-size: 14px&quot;&gt;fieldname&lt;br style=&quot;font-size: 14px&quot;&gt;&lt;/td&gt;&lt;/tr&gt;&lt;tr style=&quot;font-size: 14px&quot;&gt;&lt;td style=&quot;font-size: 14px&quot;&gt;&lt;br style=&quot;font-size: 14px&quot;&gt;&lt;/td&gt;&lt;td style=&quot;font-size: 14px&quot;&gt;fieldname&lt;br style=&quot;font-size: 14px&quot;&gt;&lt;/td&gt;&lt;/tr&gt;&lt;/tbody&gt;&lt;/table&gt;" style="verticalAlign=top;align=left;overflow=fill;html=1;rounded=0;shadow=0;comic=0;labelBackgroundColor=none;strokeWidth=1;fontFamily=Verdana;fontSize=14;" parent="1" vertex="1">
          <mxGeometry x="870" y="649" width="180" height="130" as="geometry" />
        </mxCell>
        <mxCell id="1fRgIm-5sWAIXZUn4M2q-3" style="edgeStyle=orthogonalEdgeStyle;html=1;labelBackgroundColor=none;startArrow=ERmandOne;endArrow=ERoneToMany;fontFamily=Verdana;fontSize=12;align=left;endFill=0;entryX=-0.016;entryY=0.34;entryDx=0;entryDy=0;entryPerimeter=0;" edge="1" parent="1" target="2ed32ef02a7f4228-11">
          <mxGeometry relative="1" as="geometry">
            <mxPoint x="520" y="150.94" as="sourcePoint" />
            <mxPoint x="610" y="249.99764705882342" as="targetPoint" />
          </mxGeometry>
        </mxCell>
        <mxCell id="1fRgIm-5sWAIXZUn4M2q-4" style="edgeStyle=orthogonalEdgeStyle;html=1;labelBackgroundColor=none;startArrow=ERmandOne;endArrow=ERoneToMany;fontFamily=Verdana;fontSize=12;align=left;endFill=0;entryX=0.5;entryY=0;entryDx=0;entryDy=0;exitX=0.5;exitY=1;exitDx=0;exitDy=0;" edge="1" parent="1" source="2ed32ef02a7f4228-8" target="2ed32ef02a7f4228-10">
          <mxGeometry relative="1" as="geometry">
            <mxPoint x="530" y="160.94" as="sourcePoint" />
            <mxPoint x="657.1200000000003" y="160.59999999999997" as="targetPoint" />
          </mxGeometry>
        </mxCell>
        <mxCell id="1fRgIm-5sWAIXZUn4M2q-5" value="&lt;div style=&quot;box-sizing: border-box ; width: 100% ; background: rgb(228 , 228 , 228) ; padding: 2px ; font-size: 14px&quot;&gt;&lt;b&gt;채권거래&lt;/b&gt;&lt;/div&gt;&lt;table style=&quot;width: 100% ; font-size: 14px&quot; cellpadding=&quot;2&quot; cellspacing=&quot;0&quot;&gt;&lt;tbody style=&quot;font-size: 14px&quot;&gt;&lt;tr style=&quot;font-size: 14px&quot;&gt;&lt;td style=&quot;font-size: 14px&quot;&gt;PK&lt;/td&gt;&lt;td style=&quot;font-size: 14px&quot;&gt;거래ID&lt;/td&gt;&lt;/tr&gt;&lt;tr style=&quot;font-size: 14px&quot;&gt;&lt;td style=&quot;font-size: 14px&quot;&gt;PK&lt;br&gt;&lt;/td&gt;&lt;td style=&quot;font-size: 14px&quot;&gt;거래일자&lt;/td&gt;&lt;/tr&gt;&lt;tr style=&quot;font-size: 14px&quot;&gt;&lt;td style=&quot;font-size: 14px&quot;&gt;PK&lt;/td&gt;&lt;td style=&quot;font-size: 14px&quot;&gt;종목코드&lt;/td&gt;&lt;/tr&gt;&lt;tr style=&quot;font-size: 14px&quot;&gt;&lt;td style=&quot;font-size: 14px&quot;&gt;FK1&lt;br style=&quot;font-size: 14px&quot;&gt;&lt;/td&gt;&lt;td style=&quot;font-size: 14px&quot;&gt;foreignKey&lt;br style=&quot;font-size: 14px&quot;&gt;&lt;/td&gt;&lt;/tr&gt;&lt;tr style=&quot;font-size: 14px&quot;&gt;&lt;td style=&quot;font-size: 14px&quot;&gt;FK1&lt;br style=&quot;font-size: 14px&quot;&gt;&lt;/td&gt;&lt;td style=&quot;font-size: 14px&quot;&gt;foreignKey&lt;br style=&quot;font-size: 14px&quot;&gt;&lt;/td&gt;&lt;/tr&gt;&lt;tr style=&quot;font-size: 14px&quot;&gt;&lt;td style=&quot;font-size: 14px&quot;&gt;FK1&lt;br style=&quot;font-size: 14px&quot;&gt;&lt;/td&gt;&lt;td style=&quot;font-size: 14px&quot;&gt;foreignKey&lt;br style=&quot;font-size: 14px&quot;&gt;&lt;/td&gt;&lt;/tr&gt;&lt;tr style=&quot;font-size: 14px&quot;&gt;&lt;td style=&quot;font-size: 14px&quot;&gt;FK1&lt;br style=&quot;font-size: 14px&quot;&gt;&lt;/td&gt;&lt;td style=&quot;font-size: 14px&quot;&gt;foreignKey&lt;br style=&quot;font-size: 14px&quot;&gt;&lt;/td&gt;&lt;/tr&gt;&lt;tr style=&quot;font-size: 14px&quot;&gt;&lt;td style=&quot;font-size: 14px&quot;&gt;FK1&lt;br style=&quot;font-size: 14px&quot;&gt;&lt;/td&gt;&lt;td style=&quot;font-size: 14px&quot;&gt;foreignKey&lt;br style=&quot;font-size: 14px&quot;&gt;&lt;/td&gt;&lt;/tr&gt;&lt;tr style=&quot;font-size: 14px&quot;&gt;&lt;td style=&quot;font-size: 14px&quot;&gt;FK1&lt;br style=&quot;font-size: 14px&quot;&gt;&lt;/td&gt;&lt;td style=&quot;font-size: 14px&quot;&gt;foreignKey&lt;br style=&quot;font-size: 14px&quot;&gt;&lt;/td&gt;&lt;/tr&gt;&lt;tr style=&quot;font-size: 14px&quot;&gt;&lt;td style=&quot;font-size: 14px&quot;&gt;FK1&lt;br style=&quot;font-size: 14px&quot;&gt;&lt;/td&gt;&lt;td style=&quot;font-size: 14px&quot;&gt;foreignKey&lt;br style=&quot;font-size: 14px&quot;&gt;&lt;/td&gt;&lt;/tr&gt;&lt;tr style=&quot;font-size: 14px&quot;&gt;&lt;td style=&quot;font-size: 14px&quot;&gt;FK1&lt;br style=&quot;font-size: 14px&quot;&gt;&lt;/td&gt;&lt;td style=&quot;font-size: 14px&quot;&gt;foreignKey&lt;br style=&quot;font-size: 14px&quot;&gt;&lt;/td&gt;&lt;/tr&gt;&lt;tr style=&quot;font-size: 14px&quot;&gt;&lt;td style=&quot;font-size: 14px&quot;&gt;&lt;br style=&quot;font-size: 14px&quot;&gt;&lt;/td&gt;&lt;td style=&quot;font-size: 14px&quot;&gt;fieldname&lt;br style=&quot;font-size: 14px&quot;&gt;&lt;/td&gt;&lt;/tr&gt;&lt;tr style=&quot;font-size: 14px&quot;&gt;&lt;td style=&quot;font-size: 14px&quot;&gt;&lt;br style=&quot;font-size: 14px&quot;&gt;&lt;/td&gt;&lt;td style=&quot;font-size: 14px&quot;&gt;fieldname&lt;br style=&quot;font-size: 14px&quot;&gt;&lt;/td&gt;&lt;/tr&gt;&lt;tr style=&quot;font-size: 14px&quot;&gt;&lt;td style=&quot;font-size: 14px&quot;&gt;FK1&lt;br style=&quot;font-size: 14px&quot;&gt;&lt;/td&gt;&lt;td style=&quot;font-size: 14px&quot;&gt;foreignKey&lt;br style=&quot;font-size: 14px&quot;&gt;&lt;/td&gt;&lt;/tr&gt;&lt;tr style=&quot;font-size: 14px&quot;&gt;&lt;td style=&quot;font-size: 14px&quot;&gt;&lt;br style=&quot;font-size: 14px&quot;&gt;&lt;/td&gt;&lt;td style=&quot;font-size: 14px&quot;&gt;fieldname&lt;br style=&quot;font-size: 14px&quot;&gt;&lt;/td&gt;&lt;/tr&gt;&lt;tr style=&quot;font-size: 14px&quot;&gt;&lt;td style=&quot;font-size: 14px&quot;&gt;&lt;br style=&quot;font-size: 14px&quot;&gt;&lt;/td&gt;&lt;td style=&quot;font-size: 14px&quot;&gt;fieldname&lt;br style=&quot;font-size: 14px&quot;&gt;&lt;/td&gt;&lt;/tr&gt;&lt;tr style=&quot;font-size: 14px&quot;&gt;&lt;td style=&quot;font-size: 14px&quot;&gt;FK1&lt;br style=&quot;font-size: 14px&quot;&gt;&lt;/td&gt;&lt;td style=&quot;font-size: 14px&quot;&gt;foreignKey&lt;br style=&quot;font-size: 14px&quot;&gt;&lt;/td&gt;&lt;/tr&gt;&lt;/tbody&gt;&lt;/table&gt;" style="verticalAlign=top;align=left;overflow=fill;html=1;rounded=0;shadow=0;comic=0;labelBackgroundColor=none;strokeWidth=1;fontFamily=Verdana;fontSize=14;" vertex="1" parent="1">
          <mxGeometry x="340" y="120" width="180" height="330" as="geometry" />
        </mxCell>
        <mxCell id="1fRgIm-5sWAIXZUn4M2q-6" value="&lt;div style=&quot;box-sizing: border-box ; width: 100% ; background: rgb(228 , 228 , 228) ; padding: 2px ; font-size: 14px&quot;&gt;&lt;b&gt;채권잔고&lt;/b&gt;&lt;/div&gt;&lt;table style=&quot;width: 100% ; font-size: 14px&quot; cellpadding=&quot;2&quot; cellspacing=&quot;0&quot;&gt;&lt;tbody style=&quot;font-size: 14px&quot;&gt;&lt;tr style=&quot;font-size: 14px&quot;&gt;&lt;td style=&quot;font-size: 14px&quot;&gt;PK&lt;/td&gt;&lt;td style=&quot;font-size: 14px&quot;&gt;uniqueId&lt;/td&gt;&lt;/tr&gt;&lt;tr style=&quot;font-size: 14px&quot;&gt;&lt;td style=&quot;font-size: 14px&quot;&gt;FK1&lt;/td&gt;&lt;td style=&quot;font-size: 14px&quot;&gt;foreignKey&lt;/td&gt;&lt;/tr&gt;&lt;tr style=&quot;font-size: 14px&quot;&gt;&lt;td style=&quot;font-size: 14px&quot;&gt;&lt;/td&gt;&lt;td style=&quot;font-size: 14px&quot;&gt;fieldname&lt;/td&gt;&lt;/tr&gt;&lt;tr style=&quot;font-size: 14px&quot;&gt;&lt;td style=&quot;font-size: 14px&quot;&gt;FK1&lt;br style=&quot;font-size: 14px&quot;&gt;&lt;/td&gt;&lt;td style=&quot;font-size: 14px&quot;&gt;foreignKey&lt;br style=&quot;font-size: 14px&quot;&gt;&lt;/td&gt;&lt;/tr&gt;&lt;tr style=&quot;font-size: 14px&quot;&gt;&lt;td style=&quot;font-size: 14px&quot;&gt;FK1&lt;br style=&quot;font-size: 14px&quot;&gt;&lt;/td&gt;&lt;td style=&quot;font-size: 14px&quot;&gt;foreignKey&lt;br style=&quot;font-size: 14px&quot;&gt;&lt;/td&gt;&lt;/tr&gt;&lt;tr style=&quot;font-size: 14px&quot;&gt;&lt;td style=&quot;font-size: 14px&quot;&gt;&lt;br style=&quot;font-size: 14px&quot;&gt;&lt;/td&gt;&lt;td style=&quot;font-size: 14px&quot;&gt;fieldname&lt;br style=&quot;font-size: 14px&quot;&gt;&lt;/td&gt;&lt;/tr&gt;&lt;tr style=&quot;font-size: 14px&quot;&gt;&lt;td style=&quot;font-size: 14px&quot;&gt;FK1&lt;br style=&quot;font-size: 14px&quot;&gt;&lt;/td&gt;&lt;td style=&quot;font-size: 14px&quot;&gt;foreignKey&lt;br style=&quot;font-size: 14px&quot;&gt;&lt;/td&gt;&lt;/tr&gt;&lt;tr style=&quot;font-size: 14px&quot;&gt;&lt;td style=&quot;font-size: 14px&quot;&gt;FK1&lt;br style=&quot;font-size: 14px&quot;&gt;&lt;/td&gt;&lt;td style=&quot;font-size: 14px&quot;&gt;foreignKey&lt;br style=&quot;font-size: 14px&quot;&gt;&lt;/td&gt;&lt;/tr&gt;&lt;tr style=&quot;font-size: 14px&quot;&gt;&lt;td style=&quot;font-size: 14px&quot;&gt;FK1&lt;br style=&quot;font-size: 14px&quot;&gt;&lt;/td&gt;&lt;td style=&quot;font-size: 14px&quot;&gt;foreignKey&lt;br style=&quot;font-size: 14px&quot;&gt;&lt;/td&gt;&lt;/tr&gt;&lt;tr style=&quot;font-size: 14px&quot;&gt;&lt;td style=&quot;font-size: 14px&quot;&gt;&lt;br style=&quot;font-size: 14px&quot;&gt;&lt;/td&gt;&lt;td style=&quot;font-size: 14px&quot;&gt;fieldname&lt;br style=&quot;font-size: 14px&quot;&gt;&lt;/td&gt;&lt;/tr&gt;&lt;tr style=&quot;font-size: 14px&quot;&gt;&lt;td style=&quot;font-size: 14px&quot;&gt;&lt;br style=&quot;font-size: 14px&quot;&gt;&lt;/td&gt;&lt;td style=&quot;font-size: 14px&quot;&gt;fieldname&lt;br style=&quot;font-size: 14px&quot;&gt;&lt;/td&gt;&lt;/tr&gt;&lt;tr style=&quot;font-size: 14px&quot;&gt;&lt;td style=&quot;font-size: 14px&quot;&gt;&lt;br style=&quot;font-size: 14px&quot;&gt;&lt;/td&gt;&lt;td style=&quot;font-size: 14px&quot;&gt;fieldname&lt;br style=&quot;font-size: 14px&quot;&gt;&lt;/td&gt;&lt;/tr&gt;&lt;/tbody&gt;&lt;/table&gt;" style="verticalAlign=top;align=left;overflow=fill;html=1;rounded=0;shadow=0;comic=0;labelBackgroundColor=none;strokeWidth=1;fontFamily=Verdana;fontSize=14;" vertex="1" parent="1">
          <mxGeometry x="340" y="540" width="180" height="240" as="geometry" />
        </mxCell>
        <mxCell id="1fRgIm-5sWAIXZUn4M2q-8" value="" style="endArrow=none;html=1;fontSize=14;entryX=1;entryY=0.25;entryDx=0;entryDy=0;exitX=0;exitY=0.25;exitDx=0;exitDy=0;" edge="1" parent="1">
          <mxGeometry width="50" height="50" relative="1" as="geometry">
            <mxPoint x="340" y="200.5" as="sourcePoint" />
            <mxPoint x="520" y="200.5" as="targetPoint" />
          </mxGeometry>
        </mxCell>
        <mxCell id="1fRgIm-5sWAIXZUn4M2q-12" value="" style="endArrow=none;html=1;fontSize=14;" edge="1" parent="1">
          <mxGeometry width="50" height="50" relative="1" as="geometry">
            <mxPoint x="380" y="450" as="sourcePoint" />
            <mxPoint x="379.93999999999977" y="140" as="targetPoint" />
            <Array as="points">
              <mxPoint x="379.94" y="450" />
            </Array>
          </mxGeometry>
        </mxCell>
        <mxCell id="1fRgIm-5sWAIXZUn4M2q-13" value="" style="endArrow=none;html=1;fontSize=14;" edge="1" parent="1">
          <mxGeometry width="50" height="50" relative="1" as="geometry">
            <mxPoint x="690" y="450" as="sourcePoint" />
            <mxPoint x="689.9399999999996" y="140" as="targetPoint" />
            <Array as="points">
              <mxPoint x="689.94" y="450" />
            </Array>
          </mxGeometry>
        </mxCell>
        <mxCell id="1fRgIm-5sWAIXZUn4M2q-15" value="&lt;b style=&quot;text-align: left; font-size: 14px;&quot;&gt;채권발행정보&lt;/b&gt;" style="shape=table;html=1;whiteSpace=wrap;startSize=30;container=1;collapsible=0;childLayout=tableLayout;fixedRows=1;rowLines=0;fontStyle=1;align=center;fontSize=14;fillColor=#647687;strokeColor=#314354;fontColor=#ffffff;rounded=1;shadow=0;sketch=0;fontFamily=Helvetica;" vertex="1" parent="1">
          <mxGeometry x="60" y="120" width="180" height="460" as="geometry" />
        </mxCell>
        <mxCell id="1fRgIm-5sWAIXZUn4M2q-16" value="" style="shape=partialRectangle;html=1;whiteSpace=wrap;collapsible=0;dropTarget=0;pointerEvents=0;fillColor=none;top=0;left=0;bottom=1;right=0;points=[[0,0.5],[1,0.5]];portConstraint=eastwest;" vertex="1" parent="1fRgIm-5sWAIXZUn4M2q-15">
          <mxGeometry y="30" width="180" height="30" as="geometry" />
        </mxCell>
        <mxCell id="1fRgIm-5sWAIXZUn4M2q-17" value="PK" style="shape=partialRectangle;html=1;whiteSpace=wrap;connectable=0;fillColor=none;top=0;left=0;bottom=0;right=0;overflow=hidden;fontSize=14;" vertex="1" parent="1fRgIm-5sWAIXZUn4M2q-16">
          <mxGeometry width="40" height="30" as="geometry" />
        </mxCell>
        <mxCell id="1fRgIm-5sWAIXZUn4M2q-18" value="&lt;table cellpadding=&quot;2&quot; cellspacing=&quot;0&quot; style=&quot;font-family: verdana; font-size: 14px; width: 180px;&quot;&gt;&lt;tbody style=&quot;font-size: 14px;&quot;&gt;&lt;tr style=&quot;font-size: 14px;&quot;&gt;&lt;td style=&quot;font-size: 14px;&quot;&gt;종목코드&lt;/td&gt;&lt;/tr&gt;&lt;tr style=&quot;font-size: 14px;&quot;&gt;&lt;/tr&gt;&lt;/tbody&gt;&lt;/table&gt;" style="shape=partialRectangle;html=1;whiteSpace=wrap;connectable=0;fillColor=none;top=0;left=0;bottom=0;right=0;align=left;spacingLeft=6;overflow=hidden;fontSize=14;" vertex="1" parent="1fRgIm-5sWAIXZUn4M2q-16">
          <mxGeometry x="40" width="140" height="30" as="geometry" />
        </mxCell>
        <mxCell id="1fRgIm-5sWAIXZUn4M2q-19" value="" style="shape=partialRectangle;html=1;whiteSpace=wrap;collapsible=0;dropTarget=0;pointerEvents=0;fillColor=none;top=0;left=0;bottom=0;right=0;points=[[0,0.5],[1,0.5]];portConstraint=eastwest;" vertex="1" parent="1fRgIm-5sWAIXZUn4M2q-15">
          <mxGeometry y="60" width="180" height="30" as="geometry" />
        </mxCell>
        <mxCell id="1fRgIm-5sWAIXZUn4M2q-20" value="" style="shape=partialRectangle;html=1;whiteSpace=wrap;connectable=0;fillColor=none;top=0;left=0;bottom=0;right=0;overflow=hidden;" vertex="1" parent="1fRgIm-5sWAIXZUn4M2q-19">
          <mxGeometry width="40" height="30" as="geometry" />
        </mxCell>
        <mxCell id="1fRgIm-5sWAIXZUn4M2q-21" value="종목명" style="shape=partialRectangle;html=1;whiteSpace=wrap;connectable=0;fillColor=none;top=0;left=0;bottom=0;right=0;align=left;spacingLeft=6;overflow=hidden;fontSize=14;" vertex="1" parent="1fRgIm-5sWAIXZUn4M2q-19">
          <mxGeometry x="40" width="140" height="30" as="geometry" />
        </mxCell>
        <mxCell id="1fRgIm-5sWAIXZUn4M2q-22" value="" style="shape=partialRectangle;html=1;whiteSpace=wrap;collapsible=0;dropTarget=0;pointerEvents=0;fillColor=none;top=0;left=0;bottom=0;right=0;points=[[0,0.5],[1,0.5]];portConstraint=eastwest;fontSize=14;" vertex="1" parent="1fRgIm-5sWAIXZUn4M2q-15">
          <mxGeometry y="90" width="180" height="30" as="geometry" />
        </mxCell>
        <mxCell id="1fRgIm-5sWAIXZUn4M2q-23" value="" style="shape=partialRectangle;html=1;whiteSpace=wrap;connectable=0;fillColor=none;top=0;left=0;bottom=0;right=0;overflow=hidden;" vertex="1" parent="1fRgIm-5sWAIXZUn4M2q-22">
          <mxGeometry width="40" height="30" as="geometry" />
        </mxCell>
        <mxCell id="1fRgIm-5sWAIXZUn4M2q-24" value="발행일자" style="shape=partialRectangle;html=1;whiteSpace=wrap;connectable=0;fillColor=none;top=0;left=0;bottom=0;right=0;align=left;spacingLeft=6;overflow=hidden;fontSize=14;" vertex="1" parent="1fRgIm-5sWAIXZUn4M2q-22">
          <mxGeometry x="40" width="140" height="30" as="geometry" />
        </mxCell>
        <mxCell id="1fRgIm-5sWAIXZUn4M2q-25" value="" style="shape=partialRectangle;html=1;whiteSpace=wrap;collapsible=0;dropTarget=0;pointerEvents=0;fillColor=none;top=0;left=0;bottom=0;right=0;points=[[0,0.5],[1,0.5]];portConstraint=eastwest;fontSize=14;" vertex="1" parent="1fRgIm-5sWAIXZUn4M2q-15">
          <mxGeometry y="120" width="180" height="30" as="geometry" />
        </mxCell>
        <mxCell id="1fRgIm-5sWAIXZUn4M2q-26" value="" style="shape=partialRectangle;html=1;whiteSpace=wrap;connectable=0;fillColor=none;top=0;left=0;bottom=0;right=0;overflow=hidden;" vertex="1" parent="1fRgIm-5sWAIXZUn4M2q-25">
          <mxGeometry width="40" height="30" as="geometry" />
        </mxCell>
        <mxCell id="1fRgIm-5sWAIXZUn4M2q-27" value="만기일자" style="shape=partialRectangle;html=1;whiteSpace=wrap;connectable=0;fillColor=none;top=0;left=0;bottom=0;right=0;align=left;spacingLeft=6;overflow=hidden;fontSize=14;" vertex="1" parent="1fRgIm-5sWAIXZUn4M2q-25">
          <mxGeometry x="40" width="140" height="30" as="geometry" />
        </mxCell>
        <mxCell id="1fRgIm-5sWAIXZUn4M2q-40" value="" style="shape=partialRectangle;html=1;whiteSpace=wrap;collapsible=0;dropTarget=0;pointerEvents=0;fillColor=none;top=0;left=0;bottom=0;right=0;points=[[0,0.5],[1,0.5]];portConstraint=eastwest;fontSize=14;" vertex="1" parent="1fRgIm-5sWAIXZUn4M2q-15">
          <mxGeometry y="150" width="180" height="30" as="geometry" />
        </mxCell>
        <mxCell id="1fRgIm-5sWAIXZUn4M2q-41" value="" style="shape=partialRectangle;html=1;whiteSpace=wrap;connectable=0;fillColor=none;top=0;left=0;bottom=0;right=0;overflow=hidden;" vertex="1" parent="1fRgIm-5sWAIXZUn4M2q-40">
          <mxGeometry width="40" height="30" as="geometry" />
        </mxCell>
        <mxCell id="1fRgIm-5sWAIXZUn4M2q-42" value="발행금액" style="shape=partialRectangle;html=1;whiteSpace=wrap;connectable=0;fillColor=none;top=0;left=0;bottom=0;right=0;align=left;spacingLeft=6;overflow=hidden;fontSize=14;" vertex="1" parent="1fRgIm-5sWAIXZUn4M2q-40">
          <mxGeometry x="40" width="140" height="30" as="geometry" />
        </mxCell>
        <mxCell id="1fRgIm-5sWAIXZUn4M2q-58" value="" style="shape=partialRectangle;html=1;whiteSpace=wrap;collapsible=0;dropTarget=0;pointerEvents=0;fillColor=none;top=0;left=0;bottom=0;right=0;points=[[0,0.5],[1,0.5]];portConstraint=eastwest;fontSize=14;" vertex="1" parent="1fRgIm-5sWAIXZUn4M2q-15">
          <mxGeometry y="180" width="180" height="30" as="geometry" />
        </mxCell>
        <mxCell id="1fRgIm-5sWAIXZUn4M2q-59" value="" style="shape=partialRectangle;html=1;whiteSpace=wrap;connectable=0;fillColor=none;top=0;left=0;bottom=0;right=0;overflow=hidden;" vertex="1" parent="1fRgIm-5sWAIXZUn4M2q-58">
          <mxGeometry width="40" height="30" as="geometry" />
        </mxCell>
        <mxCell id="1fRgIm-5sWAIXZUn4M2q-60" value="원금상환방법코드" style="shape=partialRectangle;html=1;whiteSpace=wrap;connectable=0;fillColor=none;top=0;left=0;bottom=0;right=0;align=left;spacingLeft=6;overflow=hidden;fontSize=14;" vertex="1" parent="1fRgIm-5sWAIXZUn4M2q-58">
          <mxGeometry x="40" width="140" height="30" as="geometry" />
        </mxCell>
        <mxCell id="1fRgIm-5sWAIXZUn4M2q-61" value="" style="shape=partialRectangle;html=1;whiteSpace=wrap;collapsible=0;dropTarget=0;pointerEvents=0;fillColor=none;top=0;left=0;bottom=0;right=0;points=[[0,0.5],[1,0.5]];portConstraint=eastwest;fontSize=14;" vertex="1" parent="1fRgIm-5sWAIXZUn4M2q-15">
          <mxGeometry y="210" width="180" height="30" as="geometry" />
        </mxCell>
        <mxCell id="1fRgIm-5sWAIXZUn4M2q-62" value="" style="shape=partialRectangle;html=1;whiteSpace=wrap;connectable=0;fillColor=none;top=0;left=0;bottom=0;right=0;overflow=hidden;" vertex="1" parent="1fRgIm-5sWAIXZUn4M2q-61">
          <mxGeometry width="40" height="30" as="geometry" />
        </mxCell>
        <mxCell id="1fRgIm-5sWAIXZUn4M2q-63" value="이자지급방법코드" style="shape=partialRectangle;html=1;whiteSpace=wrap;connectable=0;fillColor=none;top=0;left=0;bottom=0;right=0;align=left;spacingLeft=6;overflow=hidden;fontSize=14;" vertex="1" parent="1fRgIm-5sWAIXZUn4M2q-61">
          <mxGeometry x="40" width="140" height="30" as="geometry" />
        </mxCell>
        <mxCell id="1fRgIm-5sWAIXZUn4M2q-64" value="" style="shape=partialRectangle;html=1;whiteSpace=wrap;collapsible=0;dropTarget=0;pointerEvents=0;fillColor=none;top=0;left=0;bottom=0;right=0;points=[[0,0.5],[1,0.5]];portConstraint=eastwest;fontSize=14;" vertex="1" parent="1fRgIm-5sWAIXZUn4M2q-15">
          <mxGeometry y="240" width="180" height="30" as="geometry" />
        </mxCell>
        <mxCell id="1fRgIm-5sWAIXZUn4M2q-65" value="" style="shape=partialRectangle;html=1;whiteSpace=wrap;connectable=0;fillColor=none;top=0;left=0;bottom=0;right=0;overflow=hidden;" vertex="1" parent="1fRgIm-5sWAIXZUn4M2q-64">
          <mxGeometry width="40" height="30" as="geometry" />
        </mxCell>
        <mxCell id="1fRgIm-5sWAIXZUn4M2q-66" value="표면금리" style="shape=partialRectangle;html=1;whiteSpace=wrap;connectable=0;fillColor=none;top=0;left=0;bottom=0;right=0;align=left;spacingLeft=6;overflow=hidden;fontSize=14;" vertex="1" parent="1fRgIm-5sWAIXZUn4M2q-64">
          <mxGeometry x="40" width="140" height="30" as="geometry" />
        </mxCell>
        <mxCell id="1fRgIm-5sWAIXZUn4M2q-67" value="" style="shape=partialRectangle;html=1;whiteSpace=wrap;collapsible=0;dropTarget=0;pointerEvents=0;fillColor=none;top=0;left=0;bottom=0;right=0;points=[[0,0.5],[1,0.5]];portConstraint=eastwest;fontSize=14;" vertex="1" parent="1fRgIm-5sWAIXZUn4M2q-15">
          <mxGeometry y="270" width="180" height="30" as="geometry" />
        </mxCell>
        <mxCell id="1fRgIm-5sWAIXZUn4M2q-68" value="" style="shape=partialRectangle;html=1;whiteSpace=wrap;connectable=0;fillColor=none;top=0;left=0;bottom=0;right=0;overflow=hidden;" vertex="1" parent="1fRgIm-5sWAIXZUn4M2q-67">
          <mxGeometry width="40" height="30" as="geometry" />
        </mxCell>
        <mxCell id="1fRgIm-5sWAIXZUn4M2q-69" value="이자지급구분코드" style="shape=partialRectangle;html=1;whiteSpace=wrap;connectable=0;fillColor=none;top=0;left=0;bottom=0;right=0;align=left;spacingLeft=6;overflow=hidden;fontSize=14;" vertex="1" parent="1fRgIm-5sWAIXZUn4M2q-67">
          <mxGeometry x="40" width="140" height="30" as="geometry" />
        </mxCell>
        <mxCell id="1fRgIm-5sWAIXZUn4M2q-70" value="" style="shape=partialRectangle;html=1;whiteSpace=wrap;collapsible=0;dropTarget=0;pointerEvents=0;fillColor=none;top=0;left=0;bottom=0;right=0;points=[[0,0.5],[1,0.5]];portConstraint=eastwest;fontSize=14;" vertex="1" parent="1fRgIm-5sWAIXZUn4M2q-15">
          <mxGeometry y="300" width="180" height="30" as="geometry" />
        </mxCell>
        <mxCell id="1fRgIm-5sWAIXZUn4M2q-71" value="" style="shape=partialRectangle;html=1;whiteSpace=wrap;connectable=0;fillColor=none;top=0;left=0;bottom=0;right=0;overflow=hidden;" vertex="1" parent="1fRgIm-5sWAIXZUn4M2q-70">
          <mxGeometry width="40" height="30" as="geometry" />
        </mxCell>
        <mxCell id="1fRgIm-5sWAIXZUn4M2q-72" value="이자지급주기" style="shape=partialRectangle;html=1;whiteSpace=wrap;connectable=0;fillColor=none;top=0;left=0;bottom=0;right=0;align=left;spacingLeft=6;overflow=hidden;fontSize=14;" vertex="1" parent="1fRgIm-5sWAIXZUn4M2q-70">
          <mxGeometry x="40" width="140" height="30" as="geometry" />
        </mxCell>
        <mxCell id="1fRgIm-5sWAIXZUn4M2q-73" value="" style="shape=partialRectangle;html=1;whiteSpace=wrap;collapsible=0;dropTarget=0;pointerEvents=0;fillColor=none;top=0;left=0;bottom=0;right=0;points=[[0,0.5],[1,0.5]];portConstraint=eastwest;fontSize=14;" vertex="1" parent="1fRgIm-5sWAIXZUn4M2q-15">
          <mxGeometry y="330" width="180" height="30" as="geometry" />
        </mxCell>
        <mxCell id="1fRgIm-5sWAIXZUn4M2q-74" value="" style="shape=partialRectangle;html=1;whiteSpace=wrap;connectable=0;fillColor=none;top=0;left=0;bottom=0;right=0;overflow=hidden;" vertex="1" parent="1fRgIm-5sWAIXZUn4M2q-73">
          <mxGeometry width="40" height="30" as="geometry" />
        </mxCell>
        <mxCell id="1fRgIm-5sWAIXZUn4M2q-75" value="일수계산방식코드" style="shape=partialRectangle;html=1;whiteSpace=wrap;connectable=0;fillColor=none;top=0;left=0;bottom=0;right=0;align=left;spacingLeft=6;overflow=hidden;fontSize=14;" vertex="1" parent="1fRgIm-5sWAIXZUn4M2q-73">
          <mxGeometry x="40" width="140" height="30" as="geometry" />
        </mxCell>
        <mxCell id="1fRgIm-5sWAIXZUn4M2q-76" value="" style="shape=partialRectangle;html=1;whiteSpace=wrap;collapsible=0;dropTarget=0;pointerEvents=0;fillColor=none;top=0;left=0;bottom=0;right=0;points=[[0,0.5],[1,0.5]];portConstraint=eastwest;fontSize=14;" vertex="1" parent="1fRgIm-5sWAIXZUn4M2q-15">
          <mxGeometry y="360" width="180" height="30" as="geometry" />
        </mxCell>
        <mxCell id="1fRgIm-5sWAIXZUn4M2q-77" value="" style="shape=partialRectangle;html=1;whiteSpace=wrap;connectable=0;fillColor=none;top=0;left=0;bottom=0;right=0;overflow=hidden;" vertex="1" parent="1fRgIm-5sWAIXZUn4M2q-76">
          <mxGeometry width="40" height="30" as="geometry" />
        </mxCell>
        <mxCell id="1fRgIm-5sWAIXZUn4M2q-78" value="휴일반영방법코드" style="shape=partialRectangle;html=1;whiteSpace=wrap;connectable=0;fillColor=none;top=0;left=0;bottom=0;right=0;align=left;spacingLeft=6;overflow=hidden;fontSize=14;" vertex="1" parent="1fRgIm-5sWAIXZUn4M2q-76">
          <mxGeometry x="40" width="140" height="30" as="geometry" />
        </mxCell>
        <mxCell id="1fRgIm-5sWAIXZUn4M2q-79" value="" style="shape=partialRectangle;html=1;whiteSpace=wrap;collapsible=0;dropTarget=0;pointerEvents=0;fillColor=none;top=0;left=0;bottom=0;right=0;points=[[0,0.5],[1,0.5]];portConstraint=eastwest;fontSize=14;" vertex="1" parent="1fRgIm-5sWAIXZUn4M2q-15">
          <mxGeometry y="390" width="180" height="30" as="geometry" />
        </mxCell>
        <mxCell id="1fRgIm-5sWAIXZUn4M2q-80" value="" style="shape=partialRectangle;html=1;whiteSpace=wrap;connectable=0;fillColor=none;top=0;left=0;bottom=0;right=0;overflow=hidden;" vertex="1" parent="1fRgIm-5sWAIXZUn4M2q-79">
          <mxGeometry width="40" height="30" as="geometry" />
        </mxCell>
        <mxCell id="1fRgIm-5sWAIXZUn4M2q-81" value="직전이자지급일자" style="shape=partialRectangle;html=1;whiteSpace=wrap;connectable=0;fillColor=none;top=0;left=0;bottom=0;right=0;align=left;spacingLeft=6;overflow=hidden;fontSize=14;" vertex="1" parent="1fRgIm-5sWAIXZUn4M2q-79">
          <mxGeometry x="40" width="140" height="30" as="geometry" />
        </mxCell>
        <mxCell id="1fRgIm-5sWAIXZUn4M2q-82" value="" style="shape=partialRectangle;html=1;whiteSpace=wrap;collapsible=0;dropTarget=0;pointerEvents=0;fillColor=none;top=0;left=0;bottom=0;right=0;points=[[0,0.5],[1,0.5]];portConstraint=eastwest;fontSize=14;" vertex="1" parent="1fRgIm-5sWAIXZUn4M2q-15">
          <mxGeometry y="420" width="180" height="30" as="geometry" />
        </mxCell>
        <mxCell id="1fRgIm-5sWAIXZUn4M2q-83" value="" style="shape=partialRectangle;html=1;whiteSpace=wrap;connectable=0;fillColor=none;top=0;left=0;bottom=0;right=0;overflow=hidden;" vertex="1" parent="1fRgIm-5sWAIXZUn4M2q-82">
          <mxGeometry width="40" height="30" as="geometry" />
        </mxCell>
        <mxCell id="1fRgIm-5sWAIXZUn4M2q-84" value="차기이자지급일자" style="shape=partialRectangle;html=1;whiteSpace=wrap;connectable=0;fillColor=none;top=0;left=0;bottom=0;right=0;align=left;spacingLeft=6;overflow=hidden;fontSize=14;" vertex="1" parent="1fRgIm-5sWAIXZUn4M2q-82">
          <mxGeometry x="40" width="140" height="30" as="geometry" />
        </mxCell>
      </root>
    </mxGraphModel>
  </diagram>
</mxfile>
